<?xml version="1.0" encoding="UTF-8" standalone="no"?>
<svg width="417px" height="151px" viewBox="0 0 417 151" version="1.1" xmlns="http://www.w3.org/2000/svg" xmlns:xlink="http://www.w3.org/1999/xlink">
    <!-- Generator: Sketch 39.1 (31720) - http://www.bohemiancoding.com/sketch -->
    <title>code starter - weather</title>
    <desc>Created with Sketch.</desc>
    <defs>
        <rect id="path-1" x="0" y="0" width="417" height="150.738281"></rect>
        <polygon id="path-3" points="1.81869953e-20 84 155.933126 84 155.933126 0 0 0 0 84"></polygon>
        <rect id="path-5" x="0" y="0" width="147" height="143"></rect>
        <polygon id="path-7" points="0 287 147 287 147 0 0 0"></polygon>
    </defs>
    <g id="Mobile-Category-Tabs" stroke="none" stroke-width="1" fill="none" fill-rule="evenodd">
        <g id="Getting-Started-light" transform="translate(-949.000000, -598.000000)">
            <g id="code-starter---weather" transform="translate(949.000000, 598.000000)">
                <g id="rain-drops">
                    <mask id="mask-2" fill="white">
                        <use xlink:href="#path-1"></use>
                    </mask>
                    <use id="Mask" fill="#C0E6FF" xlink:href="#path-1"></use>
                </g>
                <g id="Page-1" transform="translate(33.000000, 67.000000)">
                    <mask id="mask-4" fill="white">
                        <use xlink:href="#path-3"></use>
                    </mask>
                    <g id="Clip-2"></g>
                    <path d="M106.235698,56.1072279 C106.345285,56.1097976 106.454552,56.1146158 106.56478,56.1155794 C106.507103,56.3683733 106.450707,56.6218097 106.40104,56.8774945 C106.350733,56.6189188 106.293696,56.3629127 106.235698,56.1072279 M155.933126,61.7004945 C155.933126,47.9400885 144.868675,36.7747552 131.17221,36.6456279 C131.580118,34.8490885 131.803137,32.9815612 131.803137,31.0610339 C131.803137,17.2203248 120.610193,6.00006424 106.80318,6.00006424 C98.7953112,6.00006424 91.6724703,9.77880364 87.0970488,15.6495976 C82.5216273,9.77880364 75.398466,6.00006424 67.3905972,6.00006424 C53.5835843,6.00006424 42.3909606,17.2203248 42.3909606,31.0610339 C42.3909606,32.5765127 42.5325908,34.057943 42.7898961,35.4992218 C39.7304295,34.1610521 36.3550187,33.4145552 32.8040123,33.4145552 C18.9969994,33.4145552 7.8043757,44.6344945 7.8043757,58.4752036 C7.8043757,63.4559188 9.25976925,68.0932582 11.7588037,71.9943794 C8.76822946,76.1245248 7.00009613,81.2019248 7.00009613,86.695937 C7.00009613,100.536325 18.1927198,111.756585 31.9997327,111.756585 C42.5793735,111.756585 51.6174252,105.165313 55.2677649,95.8581915 C59.8172316,102.074288 67.1537994,106.112246 75.4340338,106.112246 C83.4419026,106.112246 90.5650639,102.333828 95.1404854,96.4627127 C99.7159069,102.333828 106.838748,106.112246 114.846617,106.112246 C127.224511,106.112246 137.494617,97.0929309 139.489614,85.2540158 C149.082651,81.7511976 155.933126,72.5282339 155.933126,61.7004945" id="Fill-1" stroke="#325C80" fill="#FFFFFF" mask="url(#mask-4)"></path>
                </g>
                <g id="Group-9-Copy-4" transform="translate(135.000000, 8.000000)">
                    <mask id="mask-6" fill="white">
                        <use xlink:href="#path-5"></use>
                    </mask>
                    <g id="Mask"></g>
                    <g mask="url(#mask-6)" id="Group-6">
                        <g>
                            <g id="Page-1">
                                <path d="M145.613208,268.88835 C145.613208,278.122505 138.163358,285.606796 128.971698,285.606796 L20.8018868,285.606796 C11.6102264,285.606796 4.16037736,278.122505 4.16037736,268.88835 L4.16037736,26.4708738 C4.16037736,17.2367184 11.6102264,9.75242718 20.8018868,9.75242718 L128.971698,9.75242718 C138.163358,9.75242718 145.613208,17.2367184 145.613208,26.4708738 L145.613208,268.88835 L145.613208,268.88835 Z" id="Stroke-1" stroke="#264A60" fill="#FFFFFF"></path>
                                <mask id="mask-8" fill="white">
                                    <use xlink:href="#path-7"></use>
                                </mask>
                                <g id="Clip-4"></g>
                                <polygon id="Stroke-3" stroke="#264A60" fill="#5596E6" mask="url(#mask-8)" points="4.16037736 252.169903 145.613208 252.169903 145.613208 40.4029126 4.16037736 40.4029126"></polygon>
                                <path d="M91.5283019,26.4708738 C91.5283019,27.2399223 90.9070189,27.8640777 90.1415094,27.8640777 L62.4056604,27.8640777 C61.6401509,27.8640777 61.0188679,27.2399223 61.0188679,26.4708738 C61.0188679,25.7018252 61.6401509,25.0776699 62.4056604,25.0776699 L90.1415094,25.0776699 C90.9070189,25.0776699 91.5283019,25.7018252 91.5283019,26.4708738" id="Fill-6" fill="#264A60" mask="url(#mask-8)"></path>
                            </g>
                        </g>
                    </g>
                </g>
                <g id="Page-1" transform="translate(173.000000, 72.000000)">
                    <polygon id="Fill-1" fill="#FFFFFF" points="0 25.8296875 7.3911961 25.8296875 3.69497369 21.2915625"></polygon>
                    <g id="Group-8" transform="translate(3.121809, 0.371875)">
                        <path d="M0.201356711,25.037875 C0.5472532,38.131 11.2444455,48.711625 24.1849702,48.711625 C37.3440214,48.711625 47.5910488,37.885375 47.5910488,24.48475 C47.5910488,11.084125 37.2734685,0.2535 23.5375069,0.2535 L23.5375069,22.545375" id="Stroke-2" stroke="#FFFFFF" stroke-width="3"></path>
                        <path d="M33.2414643,30.5428125 C30.6884485,34.0021875 29.1787415,38.2809375 29.1787415,42.9121875 C29.1787415,54.4203125 38.4985915,63.7496875 49.9955914,63.7496875 C61.4919669,63.7496875 70.8118169,54.4203125 70.8118169,42.9121875 C70.8118169,38.1834375 69.238425,33.8228125 66.58676,30.3259375 L50.833485,6.4109375 L33.2414643,30.5428125 Z" id="Fill-4" fill="#FFFFFF"></path>
                        <path d="M62.9881878,42.6150625 C62.9881878,49.5275625 57.390159,55.1319375 50.4840921,55.1319375" id="Stroke-6" stroke="#4178BE" stroke-width="4" stroke-linecap="round"></path>
                    </g>
                </g>
                <path d="M355.135914,77.0276401 C355.185183,77.0287954 355.234309,77.0309616 355.283866,77.0313949 C355.257935,77.1450483 355.23258,77.2589906 355.21025,77.3739437 C355.187633,77.2576908 355.16199,77.1425933 355.135914,77.0276401 M377.479342,79.5423125 C377.479342,73.3557824 372.504884,68.335969 366.347101,68.2779148 C366.530492,67.47021 366.630759,66.6305899 366.630759,65.7671416 C366.630759,59.5445081 361.598532,54.5 355.391048,54.5 C351.790797,54.5 348.588444,56.1988805 346.531384,58.8383261 C344.474324,56.1988805 341.271827,54.5 337.671576,54.5 C331.464092,54.5 326.432009,59.5445081 326.432009,65.7671416 C326.432009,66.4484845 326.495685,67.1145196 326.611366,67.762503 C325.235863,67.1608763 323.718315,66.8252593 322.121821,66.8252593 C315.914337,66.8252593 310.882254,71.869623 310.882254,78.0922565 C310.882254,80.3315323 311.536583,82.41643 312.660122,84.170332 C311.315592,86.0272009 310.520658,88.3099451 310.520658,90.7799937 C310.520658,97.0024827 315.552741,102.046991 321.760225,102.046991 C326.516718,102.046991 330.580128,99.0836257 332.221281,94.8992445 C334.266673,97.6939346 337.565114,99.5093568 341.287818,99.5093568 C344.88807,99.5093568 348.090566,97.8106207 350.147626,95.1710307 C352.204686,97.8106207 355.407039,99.5093568 359.00729,99.5093568 C364.572258,99.5093568 369.189587,95.45437 370.086516,90.1317215 C374.399442,88.5568922 377.479342,84.4103473 377.479342,79.5423125" id="Fill-1" stroke="#325C80" fill="#FFFFFF"></path>
            </g>
        </g>
    </g>
</svg>